<?xml version="1.0" standalone="no"?>
<!DOCTYPE svg PUBLIC "-//W3C//DTD SVG 20010904//EN"
 "http://www.w3.org/TR/2001/REC-SVG-20010904/DTD/svg10.dtd">
<svg version="1.0" xmlns="http://www.w3.org/2000/svg"
 width="549.000000pt" height="686.000000pt" viewBox="0 0 549.000000 686.000000"
 preserveAspectRatio="xMidYMid meet">

<g transform="translate(0.000000,686.000000) scale(0.100000,-0.100000)"
fill="#000000" stroke="none">
<path d="M2820 6168 c-74 -20 -142 -117 -142 -202 0 -49 22 -105 57 -152 l24
-31 -117 -36 c-64 -20 -142 -41 -172 -47 -34 -7 -349 -15 -825 -21 -442 -5
-773 -13 -778 -18 -6 -6 -7 -17 -4 -25 5 -14 28 -16 144 -16 371 0 1377 21
1447 31 80 11 241 54 308 82 37 15 39 15 97 -15 129 -66 160 -70 741 -78 289
-5 652 -9 808 -9 l283 -1 -3 23 -3 22 -610 7 c-824 8 -956 13 -1035 34 -81 21
-170 60 -170 73 0 6 3 11 8 11 15 0 115 106 133 142 33 64 24 113 -30 171 -47
51 -104 71 -161 55z m85 -22 c30 -13 29 -13 -15 -9 -27 3 -63 -2 -90 -11 l-45
-15 25 19 c40 30 80 36 125 16z m18 -37 c12 -7 25 -17 29 -23 13 -19 9 -112
-7 -149 -15 -36 -98 -117 -121 -117 -31 0 -93 124 -94 185 0 48 21 82 64 101
38 16 100 18 129 3z m87 -100 c0 -36 -40 -111 -75 -139 -17 -13 -16 -11 2 15
12 17 29 54 38 83 16 48 16 68 -1 119 -3 10 3 5 15 -12 12 -17 21 -46 21 -66z
m-280 -94 c6 -16 22 -43 34 -60 36 -48 39 -55 21 -55 -18 0 -71 80 -84 128 -5
18 -7 50 -3 70 l6 37 7 -45 c4 -25 12 -58 19 -75z m10 -166 c-61 -27 -195 -66
-255 -73 -31 -4 -8 5 60 23 61 16 135 39 165 50 71 25 88 25 30 0z m162 -4
c123 -56 191 -66 493 -73 l280 -7 -165 -7 c-331 -13 -581 22 -675 96 -32 25 3
20 67 -9z m-514 -82 c-21 -2 -57 -2 -80 0 -24 2 -7 4 37 4 44 0 63 -2 43 -4z
m-628 -14 c-195 -3 -474 -6 -620 -6 -250 1 -255 2 -90 7 96 3 375 6 620 6
l445 0 -355 -7z m2910 4 c0 -7 -440 -7 -700 0 -58 1 76 4 298 5 221 1 402 -1
402 -5z"/>
<path d="M1720 5560 c-687 -3 -1045 -8 -1045 -15 0 -7 706 -11 2093 -13 1990
-2 2093 -1 2090 15 -3 17 -60 18 -1048 18 -575 0 -1515 -2 -2090 -5z"/>
<path d="M3843 5360 c-58 -12 -95 -33 -131 -74 -50 -57 -54 -86 -50 -366 3
-240 4 -258 25 -300 39 -78 107 -111 235 -111 111 -1 196 40 234 113 15 29 38
214 28 229 -3 5 -54 9 -115 9 l-109 0 0 -93 c0 -59 -4 -97 -12 -105 -20 -20
-48 -14 -58 14 -15 39 -13 493 3 523 16 31 31 36 51 16 13 -13 16 -38 16 -121
l0 -104 116 0 116 0 -7 98 c-8 121 -19 163 -50 200 -50 59 -190 94 -292 72z"/>
<path d="M672 4938 l3 -413 113 -3 112 -3 0 164 0 164 85 10 c147 18 169 49
170 243 0 148 -15 190 -81 224 -34 19 -60 21 -222 24 l-182 4 2 -414z m289
240 c15 -29 6 -157 -12 -169 -8 -5 -22 -9 -31 -9 -16 0 -18 11 -18 100 0 100
0 100 25 100 15 0 29 -8 36 -22z"/>
<path d="M1330 5337 c0 -7 -25 -192 -55 -411 -30 -219 -55 -400 -55 -402 0 -2
52 -4 115 -4 l114 0 5 33 c3 17 7 50 8 72 3 38 5 40 39 43 l36 3 9 -73 9 -73
113 -3 c61 -1 112 -1 112 1 0 2 -27 184 -60 405 -33 220 -60 405 -60 411 0 8
-52 11 -165 11 -127 0 -165 -3 -165 -13z m195 -439 l7 -78 -36 0 c-36 0 -37 1
-32 33 3 17 10 79 17 137 6 58 14 110 18 115 3 6 9 -21 12 -60 3 -38 9 -105
14 -147z"/>
<path d="M1892 4938 l3 -413 92 -3 93 -3 2 183 3 182 55 -179 55 -180 98 -3
97 -3 0 416 0 415 -95 0 -95 0 -1 -167 -1 -168 -56 168 -57 167 -97 0 -98 0 2
-412z"/>
<path d="M2520 5265 l0 -85 65 0 65 0 2 -327 3 -328 110 0 110 0 3 328 2 327
65 0 65 0 0 85 0 85 -245 0 -245 0 0 -85z"/>
<path d="M3140 4935 l0 -415 193 2 192 3 3 83 3 82 -86 0 -85 0 0 90 0 90 70
0 70 0 0 80 0 80 -70 0 -70 0 0 75 0 75 75 0 75 0 0 85 0 85 -185 0 -185 0 0
-415z"/>
<path d="M4340 4935 l0 -416 113 3 112 3 3 173 2 172 30 0 30 0 0 -175 0 -175
110 0 110 0 0 415 0 415 -110 0 -110 0 0 -145 0 -145 -30 0 -30 0 0 145 0 145
-115 0 -115 0 0 -415z"/>
<path d="M2155 4350 c-1434 -5 -1470 -5 -1473 -24 -4 -19 36 -19 2079 -12
1146 4 2088 11 2093 16 28 28 -18 30 -617 28 -337 -2 -1273 -5 -2082 -8z"/>
<path d="M1230 4263 c0 -7 -19 -13 -47 -15 l-48 -3 -27 -185 c-37 -255 -41
-230 42 -230 70 0 70 0 71 28 l1 27 10 -27 c9 -27 12 -28 79 -28 49 0 69 4 68
13 0 6 -15 100 -32 207 l-32 195 -35 3 c-19 2 -38 9 -42 15 -6 9 -8 9 -8 0z
m-14 -85 c-8 -44 -26 -187 -26 -199 0 -5 16 -9 36 -9 l36 0 -6 88 c-4 48 -10
102 -13 120 -5 31 -4 33 18 30 23 -3 25 -11 46 -143 12 -77 24 -152 27 -167 5
-26 3 -28 -29 -28 -32 0 -35 2 -35 31 0 29 -2 30 -37 27 -33 -3 -38 -7 -41
-30 -3 -25 -8 -28 -39 -28 -34 0 -35 1 -29 33 3 17 13 88 21 157 20 154 19
150 50 150 24 0 25 -3 21 -32z"/>
<path d="M710 4040 l0 -209 175 0 175 -1 0 210 0 211 -82 -3 c-78 -3 -82 -4
-88 -28 l-6 -25 -7 28 c-7 27 -9 27 -87 27 l-80 0 0 -210z m135 148 c3 -13 12
-70 20 -127 9 -58 17 -107 19 -108 3 -4 17 85 32 205 l7 52 48 0 49 0 0 -170
0 -170 -25 0 -25 0 0 121 c0 109 -2 120 -17 117 -15 -3 -21 -25 -35 -117 -9
-62 -19 -115 -22 -118 -3 -3 -11 -3 -19 0 -10 4 -18 40 -27 116 -12 96 -16
111 -32 111 -16 0 -18 -10 -18 -115 l0 -115 -30 0 -30 0 0 170 0 170 50 0 c43
0 50 -3 55 -22z"/>
<path d="M1400 4041 l0 -211 131 0 130 0 -5 98 c-7 133 -7 131 0 182 7 54 -7
93 -38 114 -14 9 -62 18 -120 22 l-98 7 0 -212z m198 153 c18 -12 22 -25 22
-64 0 -53 -16 -71 -62 -69 -13 0 -18 3 -11 6 7 2 15 20 19 39 7 39 -15 74 -48
74 -16 0 -18 -8 -18 -65 0 -45 4 -65 13 -66 10 0 10 -2 0 -6 -9 -3 -13 -31
-13 -89 l0 -84 -35 0 -35 0 0 170 0 170 73 0 c49 0 80 -5 95 -16z m-13 -168
l35 -15 0 -70 c0 -69 -1 -71 -25 -71 -24 0 -25 2 -25 63 0 40 -5 70 -16 85
-18 26 -15 27 31 8z"/>
<path d="M1700 4040 l0 -210 70 0 70 0 0 210 0 210 -70 0 -70 0 0 -210z m100
0 l0 -170 -30 0 -30 0 0 170 0 170 30 0 30 0 0 -170z"/>
<path d="M1885 4238 c-3 -8 -4 -101 -3 -208 l3 -195 58 -3 57 -3 1 33 1 33 14
-32 c14 -32 16 -33 74 -33 l60 0 0 210 0 210 -60 0 -60 0 -1 -42 -1 -43 -12
40 -12 40 -57 3 c-41 2 -59 -1 -62 -10z m130 -140 c21 -62 41 -117 46 -123 5
-5 9 43 9 113 0 115 1 122 20 122 19 0 20 -7 20 -170 l0 -170 -28 0 c-27 0
-29 4 -69 128 l-41 127 -1 -127 -1 -128 -25 0 -25 0 0 170 0 170 29 0 c28 0
30 -3 66 -112z"/>
<path d="M2195 4238 c-3 -8 -4 -101 -3 -208 l3 -195 108 -3 107 -3 0 56 0 55
-40 0 c-36 0 -40 3 -40 25 0 21 5 25 30 25 30 0 30 1 30 55 0 54 0 55 -30 55
-20 0 -30 5 -30 15 0 11 11 15 35 15 l36 0 -3 58 -3 57 -98 3 c-73 2 -99 -1
-102 -10z m175 -47 c0 -16 -8 -20 -37 -23 l-38 -3 0 -50 c0 -49 1 -50 33 -53
24 -2 32 -8 32 -23 0 -15 -7 -19 -35 -19 l-35 0 0 -55 0 -55 40 0 c33 0 40 -3
40 -20 0 -18 -7 -20 -70 -20 l-70 0 0 170 0 170 70 0 c63 0 70 -2 70 -19z"/>
<path d="M2745 4241 c-43 -18 -60 -50 -60 -113 0 -58 2 -62 39 -94 l39 -34
-42 0 -43 0 7 -52 c9 -68 18 -84 58 -105 68 -35 177 -11 198 45 6 15 9 52 6
82 -4 49 -8 58 -47 92 l-43 38 47 0 46 0 -6 43 c-9 59 -21 77 -59 93 -37 15
-108 18 -140 5z m125 -36 c17 -9 30 -19 30 -23 0 -4 3 -17 6 -29 6 -20 3 -23
-25 -23 -20 0 -31 5 -31 14 0 8 -7 22 -16 30 -22 23 -54 4 -54 -32 0 -35 14
-53 65 -85 57 -35 67 -50 68 -106 2 -59 -13 -79 -66 -88 -71 -11 -127 22 -127
77 0 27 3 30 29 30 27 0 30 -3 33 -37 3 -35 6 -38 33 -38 29 0 30 2 30 44 0
42 -3 46 -60 91 -58 45 -60 48 -63 97 -3 45 0 53 24 72 32 25 83 27 124 6z"/>
<path d="M2984 4237 c-2 -7 -3 -100 -2 -207 l3 -195 108 -3 107 -3 0 56 0 55
-35 0 c-31 0 -35 3 -35 25 0 21 5 25 31 25 l30 0 -3 53 c-3 48 -5 52 -30 55
-39 5 -37 32 2 32 l30 0 0 60 0 60 -100 0 c-73 0 -102 -4 -106 -13z m166 -47
c0 -16 -7 -20 -30 -20 -30 0 -30 -1 -30 -55 0 -54 0 -55 30 -55 23 0 30 -4 30
-20 0 -16 -7 -20 -30 -20 -30 0 -30 -1 -30 -55 l0 -55 35 0 c28 0 35 -4 35
-20 0 -18 -7 -20 -70 -20 l-70 0 0 170 0 170 65 0 c58 0 65 -2 65 -20z"/>
<path d="M3238 4244 c-5 -4 -8 -99 -8 -211 l0 -204 133 3 132 3 0 91 c0 60 -5
97 -13 107 -8 9 -9 18 -4 21 17 10 23 74 12 116 -7 27 -19 44 -38 54 -31 16
-203 32 -214 20z m202 -54 c14 -14 20 -33 20 -65 0 -40 -3 -47 -26 -55 -37
-14 -61 -13 -46 2 20 20 15 86 -7 98 -34 18 -39 11 -43 -55 -1 -36 -1 -65 2
-65 3 0 4 -40 2 -90 l-3 -90 -35 0 -34 0 0 170 0 170 75 0 c62 0 79 -4 95 -20z
m10 -175 c5 -3 10 -37 10 -76 l0 -69 -30 0 -30 0 0 73 c0 43 -5 78 -12 85 -9
9 -4 10 20 3 17 -5 36 -12 42 -16z"/>
<path d="M3517 4243 c-3 -4 10 -98 29 -208 18 -110 33 -201 34 -202 0 -2 40
-3 90 -3 85 0 90 1 95 23 4 20 55 379 55 392 0 3 -31 5 -70 5 l-69 0 -8 -37
-7 -38 -6 35 -5 35 -67 3 c-36 2 -68 -1 -71 -5z m108 -55 c4 -19 25 -205 25
-223 0 -3 8 -5 19 -5 16 0 19 12 25 103 10 144 11 147 53 147 32 0 34 -2 29
-27 -3 -16 -12 -80 -21 -143 -26 -187 -17 -170 -88 -170 l-62 0 -25 170 -26
170 33 0 c26 0 34 -5 38 -22z"/>
<path d="M3840 4040 l0 -211 68 3 67 3 0 205 0 205 -67 3 -68 3 0 -211z m100
0 l0 -170 -35 0 -35 0 0 170 0 170 35 0 35 0 0 -170z"/>
<path d="M4084 4236 c-58 -25 -64 -45 -64 -198 0 -136 0 -138 28 -168 52 -59
166 -58 216 0 22 27 42 121 30 141 -3 5 -34 9 -69 9 l-64 0 -4 -42 c-2 -24 -4
2 -4 57 0 55 2 81 4 58 l4 -43 71 0 70 0 -7 63 c-4 34 -14 73 -22 85 -30 47
-124 66 -189 38z m153 -51 c16 -18 23 -39 23 -66 0 -38 -1 -39 -35 -39 -35 0
-35 0 -35 44 0 52 -18 73 -49 56 -20 -10 -21 -20 -21 -138 0 -70 4 -133 9
-140 4 -8 19 -12 32 -10 20 2 24 9 27 46 3 41 4 42 38 42 29 0 34 -3 34 -22
-1 -65 -36 -98 -104 -98 -50 0 -83 18 -96 53 -13 39 -13 232 0 257 30 55 135
64 177 15z"/>
<path d="M4334 4237 c-2 -7 -3 -100 -2 -207 l3 -195 108 -3 107 -3 0 56 0 55
-40 0 c-36 0 -40 3 -40 25 0 22 4 25 36 25 l35 0 -3 53 c-3 51 -4 52 -35 55
-47 5 -44 32 2 32 l35 0 0 60 0 60 -100 0 c-73 0 -102 -4 -106 -13z m166 -47
c0 -16 -7 -20 -30 -20 -30 0 -30 -1 -30 -55 0 -54 0 -55 30 -55 23 0 30 -4 30
-20 0 -16 -7 -20 -30 -20 -30 0 -30 -1 -30 -55 l0 -55 35 0 c28 0 35 -4 35
-20 0 -18 -7 -20 -70 -20 l-70 0 0 170 0 170 65 0 c58 0 65 -2 65 -20z"/>
<path d="M4640 4243 c-82 -30 -92 -159 -17 -217 l32 -26 -42 0 c-42 0 -43 0
-43 -35 0 -86 53 -138 140 -139 91 0 130 39 130 133 0 52 -2 57 -45 98 l-45
43 40 0 40 0 0 41 c0 51 -13 75 -50 94 -28 15 -109 19 -140 8z m120 -38 c17
-9 30 -22 30 -29 0 -8 3 -21 6 -30 5 -13 -1 -16 -25 -16 -24 0 -31 4 -31 19 0
29 -25 45 -49 31 -15 -7 -21 -21 -21 -44 0 -28 7 -38 43 -61 80 -52 87 -63 87
-126 0 -72 -13 -84 -92 -84 -51 0 -63 4 -79 24 -10 13 -19 36 -19 52 0 26 4
29 30 29 26 0 30 -4 30 -27 0 -39 13 -55 41 -51 21 3 24 8 24 47 0 42 -3 46
-60 91 -57 44 -60 49 -63 94 -2 28 2 54 10 63 28 34 91 42 138 18z"/>
<path d="M605 3607 c-101 -48 -140 -135 -110 -249 22 -86 67 -157 150 -236 72
-69 169 -127 262 -157 48 -16 58 -25 107 -94 65 -92 154 -195 244 -278 74 -69
70 -74 -34 -42 -102 31 -119 42 -132 87 -16 53 -102 172 -154 215 -62 50 -101
67 -152 67 -37 0 -52 -6 -82 -32 -20 -17 -40 -43 -45 -56 -22 -58 40 -163 135
-226 78 -52 129 -68 221 -71 51 -2 102 -11 140 -25 33 -12 101 -27 150 -33 87
-10 93 -13 164 -65 167 -124 420 -266 610 -343 79 -32 82 -34 51 -40 -17 -4
-73 -10 -124 -14 l-92 -7 -92 62 c-165 110 -282 150 -390 132 -167 -28 -230
-144 -132 -242 88 -88 299 -103 543 -40 40 10 118 24 174 30 56 6 134 20 173
31 l72 20 131 -38 c71 -21 124 -39 116 -40 -8 -1 -45 -5 -82 -8 -74 -7 -96
-26 -61 -52 15 -12 42 -13 138 -8 l119 7 -7 -108 c-17 -258 -46 -528 -59 -536
-15 -10 -64 -3 -189 27 -103 25 -167 54 -263 118 -67 44 -256 190 -252 194 2
1 39 10 82 19 44 9 83 20 87 23 4 3 -79 50 -183 105 -105 54 -192 96 -194 95
-3 -4 13 -354 18 -393 1 -14 12 -4 40 37 l39 56 58 -87 c68 -102 186 -220 285
-285 39 -26 122 -69 185 -95 146 -62 191 -85 265 -135 87 -59 159 -122 202
-178 41 -54 49 -58 57 -31 9 27 112 132 179 181 76 56 181 112 302 161 54 22
132 61 174 87 98 61 245 207 308 306 l50 77 34 -50 c19 -27 37 -50 40 -50 4 0
10 75 13 168 4 92 8 182 11 200 2 17 1 32 -2 32 -17 0 -382 -195 -375 -201 4
-3 36 -12 71 -18 113 -22 113 -19 16 -94 -106 -83 -213 -156 -281 -190 -82
-41 -316 -96 -341 -79 -7 4 -17 50 -23 102 -13 122 -40 465 -40 509 l0 33 118
-7 c94 -5 121 -4 136 8 35 26 13 45 -61 52 -37 3 -75 7 -83 8 -8 1 46 19 120
40 128 36 137 37 175 24 46 -16 142 -33 235 -42 36 -4 97 -15 137 -25 171 -45
352 -51 454 -15 96 33 154 121 125 189 -38 90 -165 133 -299 102 -81 -19 -158
-57 -268 -132 l-82 -56 -93 7 c-51 4 -107 10 -124 14 -31 6 -28 8 51 40 200
81 440 216 613 345 67 50 76 54 146 60 41 4 115 21 164 37 58 19 99 28 117 24
38 -8 133 10 188 37 52 25 156 119 177 160 8 15 14 46 14 69 0 35 -6 48 -39
80 -34 34 -44 39 -85 39 -26 0 -63 -7 -82 -15 -73 -30 -210 -196 -233 -282 -6
-21 -21 -32 -76 -54 -39 -15 -88 -31 -110 -35 l-40 -7 83 83 c100 99 185 197
243 279 36 51 49 62 93 76 258 84 459 335 412 514 -16 63 -45 96 -111 127
-100 47 -222 22 -318 -66 -104 -95 -142 -219 -134 -435 l5 -140 -71 -95 c-85
-113 -241 -272 -352 -359 -141 -112 -365 -254 -365 -232 0 6 25 34 56 63 136
128 157 152 186 215 41 86 48 174 18 221 -23 37 -72 62 -123 62 -47 0 -130
-44 -162 -86 -72 -95 -86 -259 -31 -361 l28 -51 -46 -60 c-25 -33 -46 -65 -46
-70 0 -10 -210 -96 -335 -136 -116 -37 -326 -88 -333 -81 -4 3 -15 151 -27
328 l-20 322 244 3 243 2 43 35 c24 20 53 35 69 35 24 0 26 3 26 40 l0 40
-315 0 -315 0 0 105 c0 99 -2 107 -25 130 -18 19 -35 25 -70 25 -35 0 -52 -6
-70 -25 -23 -23 -25 -31 -25 -130 l0 -105 -315 0 -315 0 0 -40 c0 -39 1 -40
33 -40 25 0 42 -9 67 -35 l34 -35 249 0 249 0 -6 -52 c-3 -29 -13 -174 -22
-323 -9 -148 -20 -274 -24 -278 -8 -9 -207 38 -335 79 -128 42 -335 125 -335
135 0 5 -21 36 -47 69 l-46 60 29 57 c37 74 43 159 19 251 -30 109 -126 192
-223 192 -40 0 -91 -28 -112 -62 -18 -27 -21 -45 -17 -98 7 -117 47 -178 215
-332 22 -20 46 -47 52 -59 12 -21 8 -20 -46 10 -246 138 -494 352 -663 574
l-73 96 11 100 c21 191 -21 348 -121 457 -86 94 -232 129 -333 81z m244 -37
c34 -19 74 -47 88 -64 36 -43 81 -141 93 -205 12 -66 13 -242 1 -294 -9 -36
-7 -42 49 -115 186 -247 380 -421 649 -581 236 -141 557 -264 874 -335 15 -4
27 -13 27 -20 0 -34 -77 -24 -288 40 l-83 25 -72 -20 c-40 -11 -115 -25 -167
-31 -52 -7 -140 -23 -195 -37 -233 -58 -454 -35 -524 53 -65 83 -11 169 123
195 110 23 215 -12 390 -128 l99 -66 101 7 c55 4 128 12 161 19 l59 13 -119
48 c-218 88 -456 221 -626 349 -83 63 -86 64 -163 70 -100 9 -241 56 -315 106
-56 38 -141 124 -141 142 0 14 3 12 56 -37 48 -45 134 -109 134 -100 0 2 -16
33 -36 68 -98 174 -187 241 -268 203 -75 -36 -70 -97 16 -187 66 -68 127 -104
209 -123 l64 -15 -58 4 c-113 9 -241 92 -293 190 -28 54 -28 55 -12 90 69 143
269 49 376 -176 36 -76 38 -78 97 -101 55 -23 187 -57 217 -57 7 0 -34 43 -90
96 -104 97 -193 200 -269 308 -39 56 -47 61 -116 86 -159 56 -286 160 -350
288 -42 85 -53 143 -37 200 33 125 195 168 339 92z m4064 29 c57 -15 112 -70
126 -123 43 -173 -147 -409 -392 -488 -64 -21 -71 -26 -114 -88 -78 -110 -177
-223 -273 -310 -50 -47 -87 -86 -82 -88 16 -5 178 36 231 59 42 18 51 27 67
67 36 97 137 217 215 258 70 36 148 12 176 -53 12 -30 12 -38 -6 -78 -44 -99
-182 -192 -298 -200 l-58 -5 64 15 c80 19 132 49 198 115 94 94 104 157 29
194 -53 26 -103 10 -166 -53 -43 -43 -144 -200 -135 -209 8 -8 71 38 120 87
56 57 72 64 51 24 -56 -107 -263 -215 -442 -230 -77 -6 -80 -7 -169 -73 -210
-155 -428 -272 -720 -385 -29 -11 75 -33 200 -41 l100 -7 104 68 c183 120 294
153 407 120 106 -31 147 -80 124 -149 -28 -85 -119 -121 -305 -121 -107 0
-148 5 -235 27 -58 15 -148 31 -200 37 -52 6 -128 20 -168 31 l-73 20 -82 -24
c-210 -63 -287 -74 -287 -40 0 7 17 17 38 23 180 45 259 68 359 102 501 173
861 426 1151 809 l49 66 -5 141 c-3 93 0 164 8 205 41 212 218 346 393 297z
m-4070 -743 c38 -15 112 -94 147 -157 l24 -44 -39 32 c-22 17 -51 43 -64 57
-27 29 -61 35 -61 10 0 -27 38 -80 87 -124 52 -45 41 -51 -32 -16 -59 27 -140
96 -160 137 -22 42 -19 85 7 103 28 20 49 20 91 2z m3955 -2 c28 -20 29 -65 2
-110 -27 -43 -106 -109 -161 -134 -69 -31 -78 -23 -27 20 72 62 112 140 72
140 -9 0 -41 -23 -71 -50 -31 -28 -58 -49 -60 -46 -7 6 45 86 81 125 63 68
119 87 164 55z m-3021 -55 c48 -23 95 -83 118 -150 27 -75 17 -189 -22 -254
-18 -30 -27 -11 -13 29 23 70 29 153 15 205 -30 114 -87 172 -172 174 -40 0
-50 -4 -75 -32 -34 -38 -36 -75 -8 -155 25 -73 91 -168 142 -205 19 -13 19
-12 0 25 -25 50 -39 97 -45 153 -7 54 5 43 28 -28 30 -91 82 -194 140 -277
l55 -79 -64 70 c-71 78 -74 80 -167 168 -83 78 -120 148 -127 237 -4 60 -2 68
22 97 40 47 105 55 173 22z m2152 -1 c50 -31 53 -132 8 -232 -19 -40 -48 -78
-94 -122 -97 -90 -108 -102 -175 -174 -33 -36 -50 -51 -39 -35 86 121 132 207
171 315 13 36 27 70 33 75 14 15 -2 -82 -23 -135 -9 -25 -21 -54 -25 -65 -5
-12 10 -2 39 25 84 81 144 233 116 299 -18 46 -74 66 -133 50 -116 -31 -174
-202 -121 -353 27 -76 9 -93 -25 -23 -23 48 -29 154 -11 219 30 106 125 184
212 174 25 -3 56 -11 67 -18z m-2149 -36 c43 -32 85 -127 85 -191 -1 -60 -22
-151 -36 -151 -5 0 -9 1 -9 3 0 1 -20 52 -44 112 -34 84 -49 110 -63 110 -24
0 -28 -42 -10 -106 13 -44 13 -48 0 -38 -42 35 -87 174 -76 232 11 55 95 71
153 29z m2098 17 c64 -22 65 -114 1 -225 -40 -71 -49 -74 -32 -11 18 68 14
102 -11 102 -15 0 -28 -23 -61 -105 -53 -135 -56 -140 -67 -109 -5 13 -14 45
-19 71 -21 98 30 235 101 270 41 21 47 21 88 7z m-1248 -883 c0 -14 -96 -26
-207 -26 -58 0 -72 16 -20 24 109 19 227 20 227 2z m527 -3 c37 -9 15 -23 -36
-23 -111 0 -201 13 -201 28 0 13 16 14 108 8 59 -4 117 -9 129 -13z"/>
<path d="M662 3565 c-53 -16 -78 -38 -104 -89 -44 -86 0 -197 126 -321 63 -63
100 -90 169 -124 48 -24 90 -41 93 -38 3 3 -19 54 -49 113 -50 102 -98 229
-111 299 -5 29 -5 29 6 5 61 -135 117 -249 156 -315 l47 -80 7 45 c17 118 -1
269 -44 353 -34 68 -107 133 -167 151 -64 19 -72 19 -129 1z m143 -25 c57 -28
110 -83 141 -147 29 -62 56 -275 37 -294 -12 -12 -78 103 -143 251 -48 110
-54 118 -74 101 -12 -10 -12 -21 6 -84 24 -87 67 -196 108 -277 20 -40 26 -60
17 -60 -31 0 -145 81 -211 150 -86 91 -120 154 -120 226 0 120 124 190 239
134z"/>
<path d="M1384 2161 c-28 -12 -73 -67 -81 -99 -15 -61 39 -102 167 -128 91
-18 198 -15 335 10 78 14 84 11 -67 35 -86 14 -198 49 -198 61 0 13 5 13 70
-5 109 -30 260 -49 239 -31 -22 19 -195 115 -243 135 -65 27 -183 38 -222 22z
m207 -37 c30 -12 86 -41 125 -64 l69 -41 -45 6 c-25 4 -81 16 -124 26 -81 21
-105 17 -93 -15 8 -19 34 -30 147 -60 l84 -23 -71 -6 c-93 -9 -254 8 -308 32
-61 27 -71 73 -27 129 42 54 136 61 243 16z"/>
<path d="M4752 3561 c-95 -33 -167 -125 -197 -252 -15 -64 -18 -209 -6 -262 6
-27 9 -23 58 60 29 48 71 129 93 178 23 50 48 104 56 120 l15 30 -6 -30 c-13
-72 -54 -179 -111 -292 -34 -68 -58 -123 -54 -123 4 0 29 10 56 22 193 84 349
261 349 394 0 125 -124 201 -253 155z m148 -19 c45 -23 89 -87 90 -132 1 -100
-140 -277 -279 -349 l-78 -40 44 88 c83 170 131 346 94 346 -17 0 -20 -5 -70
-120 -62 -139 -123 -248 -133 -233 -22 35 1 217 38 295 62 131 193 196 294
145z"/>
<path d="M3963 2146 c-88 -33 -273 -139 -262 -151 7 -6 168 21 239 40 64 17
70 18 70 6 0 -14 -127 -51 -228 -66 -52 -8 -96 -16 -99 -18 -9 -10 193 -32
287 -32 126 1 209 22 253 66 24 25 28 35 23 61 -22 110 -137 148 -283 94z
m169 4 c43 -12 98 -71 98 -105 0 -28 -23 -53 -66 -71 -51 -21 -202 -36 -289
-28 l-80 7 85 23 c113 30 139 41 147 60 12 32 -12 36 -93 15 -43 -10 -99 -22
-124 -26 -42 -6 -44 -6 -24 9 45 33 202 107 244 115 62 12 61 12 102 1z"/>
<path d="M2652 3418 c-157 -53 -244 -205 -200 -350 20 -66 117 -162 186 -183
21 -6 22 -4 22 47 0 49 -3 56 -39 91 -22 21 -45 55 -52 74 -38 117 64 233 206
233 99 -1 166 -42 200 -124 27 -63 14 -115 -46 -180 -44 -48 -49 -59 -49 -100
0 -25 5 -46 10 -46 49 0 158 87 192 153 29 58 34 133 13 198 -27 81 -109 158
-198 187 -85 28 -163 28 -245 0z"/>
</g>
</svg>

