<svg width="200" height="250" viewBox="0 0 200 250" xmlns="http://www.w3.org/2000/svg">
  <!-- Top Decorative Element -->
  <line x1="50" y1="10" x2="100" y2="10" stroke="black" stroke-width="2"/>
  <path d="M 100 10 Q 100 5 100 10 Q 100 15 100 10" stroke="black" stroke-width="2" fill="none"/>
  <line x1="100" y1="10" x2="150" y2="10" stroke="black" stroke-width="2"/>
  
  <!-- PANTECH Text -->
  <text x="100" y="45" font-family="Arial, sans-serif" font-size="28" font-weight="bold" text-anchor="middle" fill="black">PANTECH</text>
  
  <!-- MARINE SERVICES Text (outlined) -->
  <text x="100" y="70" font-family="Arial, sans-serif" font-size="14" font-weight="bold" text-anchor="middle" fill="white" stroke="black" stroke-width="0.5">MARINE SERVICES</text>
  
  <!-- Anchor -->
  <g transform="translate(100, 150)">
    <!-- Anchor Ring -->
    <circle cx="0" cy="-80" r="8" fill="black"/>
    <!-- Anchor Shaft -->
    <line x1="0" y1="-72" x2="0" y2="20" stroke="black" stroke-width="6"/>
    <!-- Anchor Crossbar -->
    <line x1="-25" y1="-30" x2="25" y2="-30" stroke="black" stroke-width="5"/>
    <!-- Anchor Flukes -->
    <path d="M 0 20 L -20 50 L -15 55 L 0 35 Z" fill="black"/>
    <path d="M 0 20 L 20 50 L 15 55 L 0 35 Z" fill="black"/>
  </g>
  
  <!-- Leafy Branches -->
  <g transform="translate(100, 100)">
    <!-- Left Branch -->
    <path d="M 0 0 Q -15 -10 -25 -5 Q -30 0 -25 5 Q -20 10 -10 15" stroke="black" stroke-width="1.5" fill="none"/>
    <ellipse cx="-20" cy="-3" rx="3" ry="5" fill="white" stroke="black" stroke-width="1"/>
    <ellipse cx="-15" cy="2" rx="2.5" ry="4" fill="white" stroke="black" stroke-width="1"/>
    <ellipse cx="-10" cy="8" rx="2" ry="3.5" fill="white" stroke="black" stroke-width="1"/>
    
    <!-- Right Branch -->
    <path d="M 0 0 Q 15 -10 25 -5 Q 30 0 25 5 Q 20 10 10 15" stroke="black" stroke-width="1.5" fill="none"/>
    <ellipse cx="20" cy="-3" rx="3" ry="5" fill="white" stroke="black" stroke-width="1"/>
    <ellipse cx="15" cy="2" rx="2.5" ry="4" fill="white" stroke="black" stroke-width="1"/>
    <ellipse cx="10" cy="8" rx="2" ry="3.5" fill="white" stroke="black" stroke-width="1"/>
  </g>
</svg>

